<?xml version="1.0" encoding="UTF-8" standalone="no"?><!DOCTYPE svg PUBLIC "-//W3C//DTD SVG 1.1//EN" "http://www.w3.org/Graphics/SVG/1.1/DTD/svg11.dtd"><svg width="100%" height="100%" viewBox="0 0 16 15" version="1.1" xmlns="http://www.w3.org/2000/svg" xmlns:xlink="http://www.w3.org/1999/xlink" xml:space="preserve" xmlns:serif="http://www.serif.com/" style="fill-rule:evenodd;clip-rule:evenodd;stroke-linejoin:round;stroke-miterlimit:2;"><g transform="matrix(1,0,0,1,-427.432,-259.996)"><g transform="matrix(1.01647,0,0,1.01647,-14.9846,-123.719)"><path d="M442.181,378.04C442.286,377.716 442.588,377.497 442.928,377.497C443.268,377.497 443.569,377.716 443.674,378.04L444.991,382.098C445.03,382.217 445.106,382.321 445.207,382.395C445.309,382.469 445.432,382.509 445.557,382.509L449.824,382.507C450.164,382.507 450.465,382.726 450.57,383.05C450.675,383.373 450.56,383.727 450.285,383.927L446.833,386.434C446.731,386.508 446.655,386.612 446.616,386.731C446.577,386.851 446.578,386.98 446.616,387.099L447.936,391.156C448.041,391.48 447.926,391.834 447.651,392.034C447.376,392.234 447.003,392.234 446.728,392.034L443.278,389.525C443.176,389.451 443.054,389.411 442.928,389.411C442.802,389.411 442.68,389.451 442.578,389.525L439.127,392.034C438.852,392.234 438.48,392.234 438.205,392.034C437.929,391.834 437.814,391.48 437.92,391.156L439.239,387.099C439.278,386.98 439.278,386.851 439.239,386.731C439.201,386.612 439.125,386.508 439.023,386.434L435.571,383.927C435.296,383.727 435.18,383.373 435.285,383.05C435.391,382.726 435.692,382.507 436.032,382.507L440.298,382.509C440.424,382.509 440.547,382.469 440.648,382.395C440.75,382.321 440.826,382.217 440.864,382.098L442.181,378.04Z" style="fill:rgb(246,187,6);"/></g></g></svg>
